<svg width="96" height="96" viewBox="0 0 96 96" fill="none" xmlns="http://www.w3.org/2000/svg">
  <defs>
    <linearGradient id="bgGradient" x1="12" y1="12" x2="84" y2="84" gradientUnits="userSpaceOnUse">
      <stop stop-color="#0FB4F8" stop-opacity="0.9" />
      <stop offset="1" stop-color="#F037AC" stop-opacity="0.9" />
    </linearGradient>
    <linearGradient id="markGradient" x1="24" y1="22" x2="72" y2="72" gradientUnits="userSpaceOnUse">
      <stop stop-color="#E6F9FF" />
      <stop offset="1" stop-color="#F9E0F5" />
    </linearGradient>
    <linearGradient id="strokeGradient" x1="18" y1="18" x2="78" y2="78" gradientUnits="userSpaceOnUse">
      <stop stop-color="#00B0F0" stop-opacity="0.9" />
      <stop offset="1" stop-color="#F037AC" stop-opacity="0.9" />
    </linearGradient>
  </defs>
  <rect x="10" y="10" width="76" height="76" rx="18" fill="#0A1024" />
  <rect x="14" y="14" width="68" height="68" rx="16" fill="url(#bgGradient)" opacity="0.18" />
  <path
    d="M24 70V26H36.5L48 44.8L59.5 26H72V70H60V49.6L48 68L36 49.6V70H24Z"
    fill="url(#markGradient)"
  />
  <path
    d="M24 26H36.5L48 44.8L59.5 26H72V70H60V49.6L48 68L36 49.6V70H24V26Z"
    stroke="url(#strokeGradient)"
    stroke-width="3"
    stroke-linejoin="round"
  />
</svg>
